<?xml version="1.0" encoding="utf-8"?><!-- Uploaded to: SVG Repo, www.svgrepo.com, Generator: SVG Repo Mixer Tools -->
<svg fill="#000000" width="800px" height="800px" viewBox="0 0 24 24" id="work-agenda" data-name="Flat Line" xmlns="http://www.w3.org/2000/svg" class="icon flat-line"><path id="secondary" d="M5,3A1,1,0,0,0,4,4V20a1,1,0,0,0,1,1H17V3Z" style="fill: rgb(44, 169, 188); stroke-width: 2;"></path><path id="primary" d="M4,20V4A1,1,0,0,1,5,3H20a1,1,0,0,1,1,1V20a1,1,0,0,1-1,1H5A1,1,0,0,1,4,20ZM3,8H5M3,12H5M3,16H5m12,5h3a1,1,0,0,0,1-1V4a1,1,0,0,0-1-1H17Z" style="fill: none; stroke: rgb(0, 0, 0); stroke-linecap: round; stroke-linejoin: round; stroke-width: 2;"></path></svg>